{
    "asset" : {
        "generator" : "Khronos glTF Blender I/O v1.3.48",
        "version" : "2.0"
    },
    "scene" : 0,
    "scenes" : [
        {
            "name" : "Scene",
            "nodes" : [
                0,
                1,
                2,
                3,
                4,
                5,
                6,
                7,
                8
            ]
        }
    ],
    "nodes" : [
        {
            "name" : "Light",
            "rotation" : [
                0.16907577216625214,
                0.7558802962303162,
                -0.27217137813568115,
                0.570947527885437
            ],
            "translation" : [
                4.076245307922363,
                5.903861999511719,
                -1.0054540634155273
            ]
        },
        {
            "name" : "Camera",
            "rotation" : [
                -0.7825434803962708,
                -0.07161042094230652,
                0.11601901054382324,
                -0.6074844002723694
            ],
            "translation" : [
                7.358891487121582,
                4.958309173583984,
                6.925790786743164
            ]
        },
        {
            "mesh" : 0,
            "name" : "Balloon",
            "scale" : [
                0.5833335518836975,
                0.5833333134651184,
                0.5833333134651184
            ]
        },
        {
            "mesh" : 1,
            "name" : "Basket"
        },
        {
            "mesh" : 2,
            "name" : "Basket_top_edge",
            "rotation" : [
                0,
                0,
                -0.7071067690849304,
                0.7071068286895752
            ]
        },
        {
            "mesh" : 3,
            "name" : "FlameSupports"
        },
        {
            "mesh" : 4,
            "name" : "Plane"
        },
        {
            "mesh" : 5,
            "name" : "Black_ropes",
            "translation" : [
                1.27288818359375,
                1.5507559776306152,
                0
            ]
        },
        {
            "mesh" : 6,
            "name" : "Burner",
            "rotation" : [
                0.4981078803539276,
                -0.14298345148563385,
                0.761000394821167,
                -0.3902853727340698
            ],
            "scale" : [
                -1.2301284074783325,
                -1.341690182685852,
                -3.954479694366455
            ],
            "translation" : [
                10.448452949523926,
                5.992545127868652,
                4.628870010375977
            ]
        }
    ],
    "animations" : [
        {
            "channels" : [
                {
                    "sampler" : 0,
                    "target" : {
                        "node" : 8,
                        "path" : "scale"
                    }
                }
            ],
            "name" : "BurnerAction",
            "samplers" : [
                {
                    "input" : 25,
                    "interpolation" : "LINEAR",
                    "output" : 26
                }
            ]
        }
    ],
    "materials" : [
        {
            "doubleSided" : true,
            "emissiveFactor" : [
                0,
                0,
                0
            ],
            "name" : "BalloonMaterial",
            "pbrMetallicRoughness" : {
                "baseColorTexture" : {
                    "index" : 0,
                    "texCoord" : 0
                },
                "metallicFactor" : 0,
                "roughnessFactor" : 0.5
            }
        },
        {
            "doubleSided" : true,
            "emissiveFactor" : [
                0,
                0,
                0
            ],
            "name" : "Basket_Material",
            "pbrMetallicRoughness" : {
                "baseColorTexture" : {
                    "index" : 1,
                    "texCoord" : 0
                },
                "metallicFactor" : 0,
                "roughnessFactor" : 0.5
            }
        },
        {
            "doubleSided" : true,
            "emissiveFactor" : [
                0,
                0,
                0
            ],
            "name" : "Pipes",
            "pbrMetallicRoughness" : {
                "baseColorFactor" : [
                    0.2674582004547119,
                    0.06383057683706284,
                    0.009563954547047615,
                    1
                ],
                "metallicFactor" : 0,
                "roughnessFactor" : 0.5
            }
        },
        {
            "doubleSided" : true,
            "emissiveFactor" : [
                0,
                0,
                0
            ],
            "name" : "FlameGrate",
            "pbrMetallicRoughness" : {
                "metallicFactor" : 0,
                "roughnessFactor" : 0.5
            }
        },
        {
            "doubleSided" : true,
            "emissiveFactor" : [
                0,
                0,
                0
            ],
            "name" : "Black",
            "pbrMetallicRoughness" : {
                "baseColorFactor" : [
                    0,
                    0,
                    0,
                    1
                ],
                "metallicFactor" : 0,
                "roughnessFactor" : 0.5
            }
        },
        {
            "doubleSided" : true,
            "emissiveFactor" : [
                0,
                0,
                0
            ],
            "name" : "Material",
            "pbrMetallicRoughness" : {
                "baseColorTexture" : {
                    "index" : 2,
                    "texCoord" : 0
                },
                "metallicFactor" : 0,
                "roughnessFactor" : 0.4000000059604645
            }
        }
    ],
    "meshes" : [
        {
            "name" : "BalloonMesh",
            "primitives" : [
                {
                    "attributes" : {
                        "POSITION" : 0,
                        "NORMAL" : 1,
                        "TEXCOORD_0" : 2
                    },
                    "indices" : 3,
                    "material" : 0
                }
            ]
        },
        {
            "name" : "Basket mesh",
            "primitives" : [
                {
                    "attributes" : {
                        "POSITION" : 4,
                        "NORMAL" : 5,
                        "TEXCOORD_0" : 6
                    },
                    "indices" : 7,
                    "material" : 1
                }
            ]
        },
        {
            "name" : "Basket top edge mesh",
            "primitives" : [
                {
                    "attributes" : {
                        "POSITION" : 8,
                        "NORMAL" : 9
                    },
                    "indices" : 10,
                    "material" : 2
                }
            ]
        },
        {
            "name" : "FlameSupportMesh",
            "primitives" : [
                {
                    "attributes" : {
                        "POSITION" : 11,
                        "NORMAL" : 12
                    },
                    "indices" : 13,
                    "material" : 2
                }
            ]
        },
        {
            "name" : "Plane",
            "primitives" : [
                {
                    "attributes" : {
                        "POSITION" : 14,
                        "NORMAL" : 15,
                        "TEXCOORD_0" : 16
                    },
                    "indices" : 17,
                    "material" : 3
                }
            ]
        },
        {
            "name" : "Black ropes mesh",
            "primitives" : [
                {
                    "attributes" : {
                        "POSITION" : 18,
                        "NORMAL" : 19
                    },
                    "indices" : 20,
                    "material" : 4
                }
            ]
        },
        {
            "name" : "Cube",
            "primitives" : [
                {
                    "attributes" : {
                        "POSITION" : 21,
                        "NORMAL" : 22,
                        "TEXCOORD_0" : 23
                    },
                    "indices" : 24,
                    "material" : 5
                }
            ]
        }
    ],
    "textures" : [
        {
            "source" : 0
        },
        {
            "source" : 1
        },
        {
            "source" : 2
        }
    ],
    "images" : [
        {
            "bufferView" : 4,
            "mimeType" : "image/png",
            "name" : "brady-texture-2kx2k"
        },
        {
            "bufferView" : 9,
            "mimeType" : "image/jpeg",
            "name" : "WickerRepeat"
        },
        {
            "bufferView" : 27,
            "mimeType" : "image/png",
            "name" : "1024px-Fire_Texture_01"
        }
    ],
    "accessors" : [
        {
            "bufferView" : 0,
            "componentType" : 5126,
            "count" : 2145,
            "max" : [
                12.402509689331055,
                28.87173843383789,
                12.402509689331055
            ],
            "min" : [
                -12.402509689331055,
                2.65847110748291,
                -12.402509689331055
            ],
            "type" : "VEC3"
        },
        {
            "bufferView" : 1,
            "componentType" : 5126,
            "count" : 2145,
            "type" : "VEC3"
        },
        {
            "bufferView" : 2,
            "componentType" : 5126,
            "count" : 2145,
            "type" : "VEC2"
        },
        {
            "bufferView" : 3,
            "componentType" : 5123,
            "count" : 10368,
            "type" : "SCALAR"
        },
        {
            "bufferView" : 5,
            "componentType" : 5126,
            "count" : 3461,
            "max" : [
                0.6000002026557922,
                -0.7384774088859558,
                0.9600003957748413
            ],
            "min" : [
                -0.6000003218650818,
                -1.7000000476837158,
                -0.9600003361701965
            ],
            "type" : "VEC3"
        },
        {
            "bufferView" : 6,
            "componentType" : 5126,
            "count" : 3461,
            "type" : "VEC3"
        },
        {
            "bufferView" : 7,
            "componentType" : 5126,
            "count" : 3461,
            "type" : "VEC2"
        },
        {
            "bufferView" : 8,
            "componentType" : 5123,
            "count" : 13038,
            "type" : "SCALAR"
        },
        {
            "bufferView" : 10,
            "componentType" : 5126,
            "count" : 2022,
            "max" : [
                0.8951036930084229,
                0.6591187119483948,
                1.0199960470199585
            ],
            "min" : [
                0.6784793138504028,
                -0.6591334939002991,
                -1.0199979543685913
            ],
            "type" : "VEC3"
        },
        {
            "bufferView" : 11,
            "componentType" : 5126,
            "count" : 2022,
            "type" : "VEC3"
        },
        {
            "bufferView" : 12,
            "componentType" : 5123,
            "count" : 12132,
            "type" : "SCALAR"
        },
        {
            "bufferView" : 13,
            "componentType" : 5126,
            "count" : 600,
            "max" : [
                0.6223739981651306,
                0.42929860949516296,
                0.8950566053390503
            ],
            "min" : [
                -0.6223739981651306,
                -0.7549619078636169,
                -0.8950566053390503
            ],
            "type" : "VEC3"
        },
        {
            "bufferView" : 14,
            "componentType" : 5126,
            "count" : 600,
            "type" : "VEC3"
        },
        {
            "bufferView" : 15,
            "componentType" : 5123,
            "count" : 3456,
            "type" : "SCALAR"
        },
        {
            "bufferView" : 16,
            "componentType" : 5126,
            "count" : 260,
            "max" : [
                0.22999998927116394,
                0.4912322163581848,
                0.22999998927116394
            ],
            "min" : [
                -0.22999998927116394,
                0.3999999165534973,
                -0.22999998927116394
            ],
            "type" : "VEC3"
        },
        {
            "bufferView" : 17,
            "componentType" : 5126,
            "count" : 260,
            "type" : "VEC3"
        },
        {
            "bufferView" : 18,
            "componentType" : 5126,
            "count" : 260,
            "type" : "VEC2"
        },
        {
            "bufferView" : 19,
            "componentType" : 5123,
            "count" : 390,
            "type" : "SCALAR"
        },
        {
            "bufferView" : 20,
            "componentType" : 5126,
            "count" : 288,
            "max" : [
                0.005840419791638851,
                0.005231260787695646,
                1.2787280082702637
            ],
            "min" : [
                -2.5516159534454346,
                -1.1574020385742188,
                -1.2787280082702637
            ],
            "type" : "VEC3"
        },
        {
            "bufferView" : 21,
            "componentType" : 5126,
            "count" : 288,
            "type" : "VEC3"
        },
        {
            "bufferView" : 22,
            "componentType" : 5123,
            "count" : 288,
            "type" : "SCALAR"
        },
        {
            "bufferView" : 23,
            "componentType" : 5126,
            "count" : 24,
            "max" : [
                1,
                1,
                1
            ],
            "min" : [
                -1,
                -1,
                -1
            ],
            "type" : "VEC3"
        },
        {
            "bufferView" : 24,
            "componentType" : 5126,
            "count" : 24,
            "type" : "VEC3"
        },
        {
            "bufferView" : 25,
            "componentType" : 5126,
            "count" : 24,
            "type" : "VEC2"
        },
        {
            "bufferView" : 26,
            "componentType" : 5123,
            "count" : 36,
            "type" : "SCALAR"
        },
        {
            "bufferView" : 28,
            "componentType" : 5126,
            "count" : 35,
            "max" : [
                1.4583333333333333
            ],
            "min" : [
                0.041666666666666664
            ],
            "type" : "SCALAR"
        },
        {
            "bufferView" : 29,
            "componentType" : 5126,
            "count" : 35,
            "type" : "VEC3"
        }
    ],
    "bufferViews" : [
        {
            "buffer" : 0,
            "byteLength" : 25740,
            "byteOffset" : 0
        },
        {
            "buffer" : 0,
            "byteLength" : 25740,
            "byteOffset" : 25740
        },
        {
            "buffer" : 0,
            "byteLength" : 17160,
            "byteOffset" : 51480
        },
        {
            "buffer" : 0,
            "byteLength" : 20736,
            "byteOffset" : 68640
        },
        {
            "buffer" : 0,
            "byteLength" : 241869,
            "byteOffset" : 89376
        },
        {
            "buffer" : 0,
            "byteLength" : 41532,
            "byteOffset" : 331248
        },
        {
            "buffer" : 0,
            "byteLength" : 41532,
            "byteOffset" : 372780
        },
        {
            "buffer" : 0,
            "byteLength" : 27688,
            "byteOffset" : 414312
        },
        {
            "buffer" : 0,
            "byteLength" : 26076,
            "byteOffset" : 442000
        },
        {
            "buffer" : 0,
            "byteLength" : 294540,
            "byteOffset" : 468076
        },
        {
            "buffer" : 0,
            "byteLength" : 24264,
            "byteOffset" : 762616
        },
        {
            "buffer" : 0,
            "byteLength" : 24264,
            "byteOffset" : 786880
        },
        {
            "buffer" : 0,
            "byteLength" : 24264,
            "byteOffset" : 811144
        },
        {
            "buffer" : 0,
            "byteLength" : 7200,
            "byteOffset" : 835408
        },
        {
            "buffer" : 0,
            "byteLength" : 7200,
            "byteOffset" : 842608
        },
        {
            "buffer" : 0,
            "byteLength" : 6912,
            "byteOffset" : 849808
        },
        {
            "buffer" : 0,
            "byteLength" : 3120,
            "byteOffset" : 856720
        },
        {
            "buffer" : 0,
            "byteLength" : 3120,
            "byteOffset" : 859840
        },
        {
            "buffer" : 0,
            "byteLength" : 2080,
            "byteOffset" : 862960
        },
        {
            "buffer" : 0,
            "byteLength" : 780,
            "byteOffset" : 865040
        },
        {
            "buffer" : 0,
            "byteLength" : 3456,
            "byteOffset" : 865820
        },
        {
            "buffer" : 0,
            "byteLength" : 3456,
            "byteOffset" : 869276
        },
        {
            "buffer" : 0,
            "byteLength" : 576,
            "byteOffset" : 872732
        },
        {
            "buffer" : 0,
            "byteLength" : 288,
            "byteOffset" : 873308
        },
        {
            "buffer" : 0,
            "byteLength" : 288,
            "byteOffset" : 873596
        },
        {
            "buffer" : 0,
            "byteLength" : 192,
            "byteOffset" : 873884
        },
        {
            "buffer" : 0,
            "byteLength" : 72,
            "byteOffset" : 874076
        },
        {
            "buffer" : 0,
            "byteLength" : 1094088,
            "byteOffset" : 874148
        },
        {
            "buffer" : 0,
            "byteLength" : 140,
            "byteOffset" : 1968236
        },
        {
            "buffer" : 0,
            "byteLength" : 420,
            "byteOffset" : 1968376
        }
    ],
    "buffers" : [
        {
            "byteLength" : 1968796,
            "uri" : "data:application/octet-stream;base64,"
        }
    ]
}
